<svg width="129" height="24" viewBox="0 0 129 24" fill="none" xmlns="http://www.w3.org/2000/svg">
<mask id="mask0_119_17" style="mask-type:alpha" maskUnits="userSpaceOnUse" x="2" y="1" width="125" height="20">
<path d="M11.0618 2.4813C11.3155 1.70029 12.4205 1.70029 12.6742 2.4813L14.3422 7.61483C14.4557 7.96411 14.7812 8.20058 15.1484 8.20058H20.5461C21.3673 8.20058 21.7088 9.25143 21.0444 9.73411L16.6776 12.9068C16.3805 13.1227 16.2561 13.5053 16.3696 13.8546L18.0376 18.9881C18.2914 19.7691 17.3975 20.4186 16.7331 19.9359L12.3663 16.7632C12.0692 16.5473 11.6668 16.5473 11.3697 16.7632L7.00289 19.9359C6.33852 20.4186 5.44462 19.7691 5.69839 18.9881L7.36637 13.8546C7.47986 13.5053 7.35554 13.1227 7.05842 12.9068L2.69158 9.73411C2.02722 9.25143 2.36866 8.20058 3.18986 8.20058H8.58757C8.95482 8.20058 9.2803 7.96411 9.39379 7.61483L11.0618 2.4813Z" fill="#9E9D9D"/>
<path d="M37.8937 2.4813C38.1475 1.70029 39.2524 1.70029 39.5061 2.4813L41.1741 7.61483C41.2876 7.96411 41.6131 8.20058 41.9804 8.20058H47.3781C48.1993 8.20058 48.5407 9.25143 47.8763 9.73411L43.5095 12.9068C43.2124 13.1227 43.0881 13.5053 43.2016 13.8546L44.8695 18.9881C45.1233 19.7691 44.2294 20.4186 43.565 19.9359L39.1982 16.7632C38.9011 16.5473 38.4988 16.5473 38.2017 16.7632L33.8348 19.9359C33.1704 20.4186 32.2765 19.7691 32.5303 18.9881L34.1983 13.8546C34.3118 13.5053 34.1875 13.1227 33.8903 12.9068L29.5235 9.73411C28.8591 9.25143 29.2006 8.20058 30.0218 8.20058H35.4195C35.7867 8.20058 36.1122 7.96411 36.2257 7.61483L37.8937 2.4813Z" fill="#9E9D9D"/>
<path d="M63.6938 2.4813C63.9475 1.70029 65.0524 1.70029 65.3062 2.4813L66.9742 7.61483C67.0877 7.96411 67.4132 8.20058 67.7804 8.20058H73.1781C73.9993 8.20058 74.3408 9.25143 73.6764 9.73411L69.3096 12.9068C69.0124 13.1227 68.8881 13.5053 69.0016 13.8546L70.6696 18.9881C70.9234 19.7691 70.0295 20.4186 69.3651 19.9359L64.9983 16.7632C64.7011 16.5473 64.2988 16.5473 64.0017 16.7632L59.6349 19.9359C58.9705 20.4186 58.0766 19.7691 58.3304 18.9881L59.9984 13.8546C60.1118 13.5053 59.9875 13.1227 59.6904 12.9068L55.3236 9.73411C54.6592 9.25143 55.0006 8.20058 55.8218 8.20058H61.2196C61.5868 8.20058 61.9123 7.96411 62.0258 7.61483L63.6938 2.4813Z" fill="#9E9D9D"/>
<path d="M90.5259 2.4813C90.7796 1.70029 91.8846 1.70029 92.1383 2.4813L93.8063 7.61483C93.9198 7.96411 94.2453 8.20058 94.6125 8.20058H100.01C100.831 8.20058 101.173 9.25143 100.509 9.73411L96.1417 12.9068C95.8446 13.1227 95.7202 13.5053 95.8337 13.8546L97.5017 18.9881C97.7555 19.7691 96.8616 20.4186 96.1972 19.9359L91.8304 16.7632C91.5333 16.5473 91.1309 16.5473 90.8338 16.7632L86.467 19.9359C85.8026 20.4186 84.9087 19.7691 85.1625 18.9881L86.8305 13.8546C86.944 13.5053 86.8196 13.1227 86.5225 12.9068L82.1557 9.73411C81.4913 9.25143 81.8328 8.20058 82.654 8.20058H88.0517C88.4189 8.20058 88.7444 7.96411 88.8579 7.61483L90.5259 2.4813Z" fill="#9E9D9D"/>
<path d="M116.326 2.4813C116.579 1.70029 117.684 1.70029 117.938 2.4813L119.606 7.61483C119.72 7.96411 120.045 8.20058 120.412 8.20058H125.81C126.631 8.20058 126.973 9.25143 126.308 9.73411L121.941 12.9068C121.644 13.1227 121.52 13.5053 121.634 13.8546L123.302 18.9881C123.555 19.7691 122.661 20.4186 121.997 19.9359L117.63 16.7632C117.333 16.5473 116.931 16.5473 116.634 16.7632L112.267 19.9359C111.602 20.4186 110.709 19.7691 110.962 18.9881L112.63 13.8546C112.744 13.5053 112.619 13.1227 112.322 12.9068L107.955 9.73411C107.291 9.25143 107.633 8.20058 108.454 8.20058H113.851C114.219 8.20058 114.544 7.96411 114.658 7.61483L116.326 2.4813Z" fill="#9E9D9D"/>
</mask>
<g mask="url(#mask0_119_17)">
<path d="M116.178 2.4813C116.432 1.70029 117.537 1.70029 117.791 2.4813L119.459 7.61483C119.572 7.96411 119.898 8.20058 120.265 8.20058H125.663C126.484 8.20058 126.825 9.25143 126.161 9.73411L121.794 12.9068C121.497 13.1227 121.373 13.5053 121.486 13.8546L123.154 18.9881C123.408 19.7691 122.514 20.4186 121.85 19.9359L117.483 16.7632C117.186 16.5473 116.783 16.5473 116.486 16.7632L112.119 19.9359C111.455 20.4186 110.561 19.7691 110.815 18.9881L112.483 13.8546C112.596 13.5053 112.472 13.1227 112.175 12.9068L107.808 9.73411C107.144 9.25143 107.485 8.20058 108.306 8.20058H113.704C114.071 8.20058 114.397 7.96411 114.51 7.61483L116.178 2.4813Z" fill="#CFCDCD"/>
<rect x="-13.4161" y="2.06398" width="130.032" height="21.672" fill="#DFD928"/>
</g>
</svg>
